<?xml version="1.0" encoding="utf-8"?>
<!-- Generator: Adobe Illustrator 23.0.3, SVG Export Plug-In . SVG Version: 6.00 Build 0)  -->
<svg version="1.1" id="Layer_1" xmlns="http://www.w3.org/2000/svg" xmlns:xlink="http://www.w3.org/1999/xlink" x="0px" y="0px"
	 viewBox="0 0 20 20" style="enable-background:new 0 0 20 20;" xml:space="preserve">
<style type="text/css">
	.st0{fill:#C2CFD7;}
</style>
<g id="Dribble">
	<g>
		<path class="st0" d="M17.1,8.23c-0.1-0.48-0.24-0.95-0.44-1.4c-0.19-0.44-0.42-0.87-0.69-1.27c-0.27-0.4-0.57-0.77-0.91-1.1
			c-0.34-0.34-0.71-0.65-1.1-0.91c-0.4-0.27-0.83-0.5-1.27-0.69c-0.45-0.19-0.92-0.34-1.4-0.43c-0.49-0.1-1-0.15-1.5-0.15
			c-0.51,0-1.01,0.05-1.5,0.15c-0.48,0.1-0.95,0.24-1.4,0.43C6.43,3.04,6,3.28,5.6,3.55C5.21,3.81,4.84,4.12,4.5,4.46
			C4.16,4.8,3.85,5.17,3.59,5.56c-0.27,0.4-0.5,0.83-0.69,1.27c-0.19,0.45-0.34,0.92-0.44,1.4c-0.1,0.49-0.15,1-0.15,1.5
			c0,0.51,0.05,1.01,0.15,1.5c0.1,0.48,0.25,0.95,0.44,1.4c0.19,0.44,0.42,0.87,0.69,1.27c0.27,0.39,0.58,0.77,0.91,1.1
			c0.34,0.34,0.71,0.64,1.11,0.91c0.4,0.27,0.83,0.5,1.27,0.69c0.45,0.19,0.92,0.34,1.4,0.43c0.49,0.1,1,0.15,1.5,0.15
			c0.5,0,1.01-0.05,1.5-0.15c0.48-0.1,0.95-0.24,1.4-0.43c0.44-0.19,0.87-0.42,1.27-0.69c0.39-0.26,0.77-0.57,1.1-0.91
			c0.34-0.34,0.64-0.71,0.91-1.1c0.27-0.4,0.5-0.83,0.69-1.27c0.19-0.45,0.34-0.92,0.44-1.4c0.1-0.49,0.15-1,0.15-1.5
			C17.25,9.23,17.2,8.73,17.1,8.23z M9.78,3.36c1.61,0,3.09,0.6,4.21,1.59c-0.02,0.02-0.92,1.41-3.33,2.31
			c-1.09-2-2.29-3.6-2.38-3.72C8.76,3.42,9.26,3.36,9.78,3.36z M8.25,3.54L8.25,3.54c0,0-0.01,0-0.02,0.01
			C8.23,3.55,8.25,3.55,8.25,3.54z M7.06,3.97c0.08,0.11,1.26,1.71,2.37,3.68C6.36,8.46,3.71,8.43,3.54,8.42
			C3.95,6.45,5.28,4.81,7.06,3.97z M5.04,14C4.02,12.87,3.4,11.38,3.4,9.74c0-0.07,0-0.13,0-0.2c0.11,0,3.27,0.07,6.55-0.91
			c0.18,0.36,0.36,0.72,0.52,1.08c-0.09,0.02-0.17,0.05-0.25,0.08C6.78,10.9,5.03,14,5.04,14L5.04,14z M9.78,16.12
			c-1.48,0-2.83-0.51-3.92-1.36c0,0,0,0.01,0,0.01s-0.06-0.04-0.14-0.11c0.05,0.04,0.1,0.07,0.15,0.1c0.05-0.1,1.29-2.68,5-3.98
			c0.01,0,0.03-0.01,0.04-0.01c0.9,2.33,1.27,4.28,1.36,4.84C11.5,15.94,10.66,16.12,9.78,16.12z M13.34,15.03
			c-0.06-0.38-0.41-2.26-1.24-4.56c2.06-0.33,3.84,0.24,3.98,0.28C15.79,12.53,14.78,14.06,13.34,15.03z M11.71,9.47
			c-0.04-0.11-0.09-0.22-0.14-0.33c-0.13-0.31-0.28-0.62-0.42-0.92c2.52-1.03,3.54-2.51,3.55-2.53c0.89,1.09,1.43,2.47,1.45,3.99
			C16.06,9.66,13.91,9.19,11.71,9.47z"/>
	</g>
</g>
</svg>
