<?xml version="1.0" encoding="utf-8"?>
<!-- Generator: Adobe Illustrator 23.0.3, SVG Export Plug-In . SVG Version: 6.00 Build 0)  -->
<svg version="1.1" id="Layer_1" xmlns="http://www.w3.org/2000/svg" xmlns:xlink="http://www.w3.org/1999/xlink" x="0px" y="0px"
	 viewBox="0 0 20 20" style="enable-background:new 0 0 20 20;" xml:space="preserve">
<style type="text/css">
	.st0{fill-rule:evenodd;clip-rule:evenodd;fill:#C2CFD7;}
</style>
<g id="Google">
	<g>
		<path class="st0" d="M17.21,8.23h-2.27V5.96c0-0.17-0.14-0.31-0.31-0.31h-0.65c-0.17,0-0.31,0.14-0.31,0.31v2.27H11.4
			c-0.17,0-0.32,0.14-0.32,0.31v0.65c0,0.17,0.14,0.31,0.32,0.31h2.27v2.27c0,0.17,0.14,0.31,0.31,0.31h0.65
			c0.17,0,0.31-0.14,0.31-0.31V9.5h2.27c0.17,0,0.31-0.14,0.31-0.31V8.54C17.53,8.37,17.38,8.23,17.21,8.23z M9.58,10.22
			C9.11,9.88,8.67,9.39,8.67,9.23c0-0.28,0.02-0.41,0.65-0.89c0.8-0.63,1.25-1.46,1.25-2.33c0-0.79-0.24-1.5-0.66-1.99h0.32
			c0.07,0,0.13-0.02,0.19-0.06l0.89-0.65c0.11-0.08,0.16-0.22,0.11-0.35c-0.04-0.13-0.16-0.22-0.3-0.22H7.13
			c-0.44,0-0.88,0.08-1.32,0.23c-1.46,0.5-2.47,1.74-2.47,3.01c0,1.8,1.4,3.17,3.26,3.21C6.56,9.34,6.55,9.48,6.55,9.62
			c0,0.28,0.07,0.54,0.21,0.79c-0.02,0-0.03,0-0.05,0c-1.78,0-3.39,0.87-4,2.18c-0.16,0.34-0.24,0.68-0.24,1.01
			c0,0.33,0.08,0.65,0.25,0.94c0.38,0.69,1.21,1.22,2.32,1.5c0.57,0.15,1.19,0.22,1.83,0.22c0.58,0,1.12-0.07,1.63-0.22
			c1.58-0.46,2.61-1.62,2.61-2.97C11.11,11.78,10.7,11.01,9.58,10.22z M5.4,5.93C5.31,5.27,5.45,4.68,5.78,4.3
			c0.21-0.24,0.49-0.37,0.8-0.37h0.04C7.5,3.96,8.34,4.94,8.5,6.13c0.09,0.66-0.06,1.29-0.39,1.67C7.89,8.03,7.62,8.16,7.29,8.16
			H7.28C6.42,8.14,5.55,7.11,5.4,5.93z M6.87,14.99c-1.3,0-2.32-0.8-2.32-1.82c0-0.94,1.19-1.76,2.55-1.76h0.04
			c0.3,0.01,0.58,0.05,0.86,0.13c0.09,0.06,0.18,0.12,0.27,0.19c0.63,0.43,1.04,0.71,1.16,1.17c0.03,0.12,0.04,0.23,0.04,0.34
			C9.46,14.4,8.59,14.99,6.87,14.99z"/>
	</g>
</g>
</svg>
