<?xml version="1.0" encoding="utf-8"?>
<!-- Generator: Adobe Illustrator 23.0.3, SVG Export Plug-In . SVG Version: 6.00 Build 0)  -->
<svg version="1.1" id="Layer_1" xmlns="http://www.w3.org/2000/svg" xmlns:xlink="http://www.w3.org/1999/xlink" x="0px" y="0px"
	 viewBox="0 0 20 20" style="enable-background:new 0 0 20 20;" xml:space="preserve">
<style type="text/css">
	.st0{fill:#C2CFD7;}
</style>
<g id="Tweeter">
	<g>
		<path class="st0" d="M17.74,5.55c-0.55,0.24-1.13,0.41-1.75,0.48c0.63-0.38,1.11-0.97,1.34-1.69c-0.59,0.35-1.24,0.61-1.94,0.74
			c-0.56-0.6-1.35-0.97-2.23-0.97c-1.69,0-3.05,1.37-3.05,3.05c0,0.24,0.03,0.47,0.08,0.7C7.65,7.75,5.4,6.53,3.89,4.68
			C3.63,5.13,3.48,5.66,3.48,6.22c0,1.06,0.54,1.99,1.36,2.54C4.34,8.74,3.87,8.6,3.45,8.37c0,0.01,0,0.03,0,0.04
			c0,1.48,1.05,2.71,2.45,2.99c-0.26,0.07-0.53,0.11-0.81,0.11c-0.2,0-0.39-0.02-0.57-0.06c0.39,1.21,1.52,2.1,2.85,2.12
			c-1.04,0.82-2.36,1.31-3.79,1.31c-0.25,0-0.49-0.01-0.73-0.04c1.35,0.87,2.96,1.37,4.68,1.37c5.62,0,8.69-4.65,8.69-8.69
			c0-0.13,0-0.26-0.01-0.39C16.81,6.7,17.33,6.17,17.74,5.55z"/>
	</g>
</g>
</svg>
