<?xml version="1.0" encoding="utf-8"?>
<!-- Generator: Adobe Illustrator 23.0.3, SVG Export Plug-In . SVG Version: 6.00 Build 0)  -->
<svg version="1.1" id="Layer_1" xmlns="http://www.w3.org/2000/svg" xmlns:xlink="http://www.w3.org/1999/xlink" x="0px" y="0px"
	 viewBox="0 0 20 20" style="enable-background:new 0 0 20 20;" xml:space="preserve">
<style type="text/css">
	.st0{fill-rule:evenodd;clip-rule:evenodd;fill:#C2CFD7;}
</style>
<g id="Youtube">
	<g>
		<path class="st0" d="M14.2,9.16H4.8c-1.5,0-2.71,1.21-2.71,2.71v2.18c0,1.49,1.21,2.71,2.71,2.71h9.41c1.49,0,2.71-1.21,2.71-2.71
			v-2.18C16.91,10.37,15.7,9.16,14.2,9.16z M6.77,10.85H5.9v4.34H5.06v-4.34H4.18v-0.74h2.59V10.85z M9.24,15.2H8.5v-0.41
			c-0.14,0.15-0.28,0.27-0.43,0.35c-0.15,0.08-0.3,0.12-0.44,0.12c-0.17,0-0.3-0.05-0.39-0.17c-0.09-0.11-0.13-0.28-0.13-0.5v-3.14
			h0.75v2.88c0,0.09,0.02,0.15,0.05,0.19c0.03,0.04,0.08,0.06,0.15,0.06c0.05,0,0.12-0.03,0.21-0.08c0.08-0.05,0.16-0.12,0.23-0.2
			v-2.85h0.75V15.2z M11.96,14.42c0,0.27-0.06,0.47-0.18,0.61c-0.12,0.14-0.29,0.21-0.51,0.21c-0.15,0-0.28-0.03-0.39-0.08
			c-0.12-0.05-0.22-0.14-0.32-0.26v0.29H9.81v-5.08h0.76v1.64c0.1-0.11,0.21-0.2,0.32-0.26c0.11-0.06,0.23-0.09,0.35-0.09
			c0.24,0,0.42,0.08,0.54,0.24c0.12,0.16,0.19,0.39,0.19,0.7V14.42z M14.56,13.41h-1.43v0.71c0,0.2,0.02,0.33,0.07,0.41
			c0.05,0.08,0.14,0.12,0.25,0.12c0.12,0,0.21-0.03,0.26-0.1c0.05-0.07,0.08-0.21,0.08-0.43v-0.17h0.77v0.19
			c0,0.38-0.09,0.67-0.28,0.87c-0.19,0.19-0.47,0.29-0.84,0.29c-0.34,0-0.6-0.1-0.79-0.31c-0.19-0.2-0.29-0.49-0.29-0.85v-1.69
			c0-0.32,0.11-0.59,0.32-0.79c0.21-0.21,0.48-0.31,0.82-0.31c0.34,0,0.61,0.09,0.79,0.28c0.18,0.19,0.28,0.46,0.28,0.82V13.41z
			 M13.46,12.01c-0.12,0-0.2,0.03-0.26,0.1c-0.05,0.06-0.08,0.18-0.08,0.34v0.38h0.66v-0.38c0-0.16-0.03-0.27-0.08-0.34
			C13.66,12.04,13.58,12.01,13.46,12.01z M10.88,12c-0.05,0-0.11,0.01-0.16,0.04c-0.05,0.02-0.11,0.07-0.15,0.12v2.34
			c0.06,0.06,0.12,0.11,0.18,0.13c0.06,0.03,0.12,0.04,0.18,0.04c0.09,0,0.16-0.02,0.2-0.08c0.04-0.06,0.06-0.14,0.06-0.26v-1.94
			c0-0.13-0.02-0.22-0.08-0.29C11.06,12.03,10.98,12,10.88,12z M6.03,7.85h0.95V5.53l1.11-3.28H7.12L6.53,4.49H6.47L5.86,2.25H4.9
			l1.13,3.38V7.85z M9.37,7.96c0.38,0,0.68-0.1,0.91-0.3c0.22-0.2,0.33-0.48,0.33-0.83V4.69c0-0.31-0.11-0.57-0.33-0.77
			c-0.22-0.2-0.51-0.3-0.86-0.3c-0.38,0-0.69,0.1-0.92,0.29C8.27,4.09,8.16,4.35,8.16,4.67v2.14c0,0.35,0.11,0.63,0.33,0.84
			C8.71,7.85,9,7.96,9.37,7.96z M9.02,4.64c0-0.09,0.03-0.16,0.09-0.22c0.07-0.06,0.15-0.08,0.25-0.08c0.11,0,0.2,0.03,0.27,0.08
			c0.07,0.06,0.1,0.13,0.1,0.22v2.25c0,0.11-0.03,0.2-0.1,0.26C9.58,7.21,9.49,7.24,9.37,7.24c-0.11,0-0.2-0.03-0.26-0.09
			C9.05,7.09,9.02,7,9.02,6.89V4.64z M11.88,7.91c0.16,0,0.32-0.04,0.49-0.13c0.17-0.09,0.33-0.22,0.48-0.39v0.46h0.85V3.72h-0.85
			v3.14c-0.08,0.09-0.16,0.16-0.26,0.22c-0.09,0.06-0.17,0.09-0.24,0.09c-0.08,0-0.14-0.02-0.17-0.07
			c-0.04-0.04-0.05-0.12-0.05-0.21V3.72h-0.84v3.45c0,0.25,0.05,0.43,0.15,0.55C11.54,7.85,11.68,7.91,11.88,7.91z"/>
	</g>
</g>
</svg>
